<svg xmlns="http://www.w3.org/2000/svg" xmlns:xlink="http://www.w3.org/1999/xlink" width="500" zoomAndPan="magnify" viewBox="0 0 375 374.999991" height="500" preserveAspectRatio="xMidYMid meet" version="1.2"><defs><clipPath id="e81714c1fb"><path d="M 82.914062 177.800781 L 309.050781 177.800781 L 309.050781 192.792969 L 82.914062 192.792969 Z M 82.914062 177.800781 "/></clipPath><clipPath id="ac06a2d674"><path d="M 0.914062 0.800781 L 227.050781 0.800781 L 227.050781 15.792969 L 0.914062 15.792969 Z M 0.914062 0.800781 "/></clipPath><clipPath id="cc9eb41ffe"><rect x="0" width="228" y="0" height="16"/></clipPath></defs><g id="c08d61aa55"><path style="fill:none;stroke-width:4;stroke-linecap:butt;stroke-linejoin:miter;stroke:#ffffff;stroke-opacity:1;stroke-miterlimit:4;" d="M 0.00258433 2.001245 L 101.080716 2.001244 " transform="matrix(0.000000001309,-0.75,0.75,0.000000001309,63.038129,225.404282)"/><g style="fill:#ffffff;fill-opacity:1;"><g transform="translate(132.774181, 207.507759)"><path style="stroke:none" d="M 0.3125 -0.890625 C 2.050781 -2.578125 3.910156 -4.390625 5.890625 -6.328125 C 7.878906 -8.273438 9.820312 -10.304688 11.71875 -12.421875 C 13.625 -14.535156 15.359375 -16.734375 16.921875 -19.015625 C 18.484375 -21.296875 19.726562 -23.609375 20.65625 -25.953125 C 21.59375 -28.304688 22.0625 -30.664062 22.0625 -33.03125 C 22.0625 -35.644531 21.320312 -37.710938 19.84375 -39.234375 C 18.363281 -40.753906 16.398438 -41.515625 13.953125 -41.515625 C 12.296875 -41.515625 10.664062 -41.15625 9.0625 -40.4375 C 7.457031 -39.71875 5.976562 -38.617188 4.625 -37.140625 L 4.125 -37.71875 C 5.851562 -39.832031 7.796875 -41.539062 9.953125 -42.84375 C 12.109375 -44.15625 14.601562 -44.8125 17.4375 -44.8125 C 19.289062 -44.8125 20.988281 -44.410156 22.53125 -43.609375 C 24.070312 -42.804688 25.316406 -41.644531 26.265625 -40.125 C 27.222656 -38.601562 27.703125 -36.765625 27.703125 -34.609375 C 27.703125 -32.203125 27.179688 -29.835938 26.140625 -27.515625 C 25.109375 -25.191406 23.75 -22.929688 22.0625 -20.734375 C 20.375 -18.535156 18.523438 -16.441406 16.515625 -14.453125 C 14.503906 -12.460938 12.515625 -10.601562 10.546875 -8.875 C 8.585938 -7.144531 6.828125 -5.601562 5.265625 -4.25 L 19.71875 -4.25 C 21.832031 -4.25 23.445312 -4.394531 24.5625 -4.6875 C 25.6875 -4.988281 26.519531 -5.484375 27.0625 -6.171875 C 27.613281 -6.867188 28.082031 -7.789062 28.46875 -8.9375 L 29.09375 -8.875 L 28.140625 0 L 0.3125 0 Z M 0.3125 -0.890625 "/></g></g><g style="fill:#ffffff;fill-opacity:1;"><g transform="translate(77.252563, 206.489518)"><path style="stroke:none" d="M 19.15625 -42.625 L 2.09375 -42.625 L 2.09375 -41.609375 L 7.546875 -41.609375 L 7.546875 -1.015625 L 2.09375 -1.015625 L 2.09375 0 L 19.15625 0 L 19.15625 -1.015625 L 13.703125 -1.015625 L 13.703125 -22.140625 L 30.515625 -22.140625 L 30.515625 -1.015625 L 25.0625 -1.015625 L 25.0625 0 L 42.125 0 L 42.125 -1.015625 L 36.671875 -1.015625 L 36.671875 -41.609375 L 42.125 -41.609375 L 42.125 -42.625 L 25.0625 -42.625 L 25.0625 -41.609375 L 30.515625 -41.609375 L 30.515625 -23.21875 L 13.703125 -23.21875 L 13.703125 -41.609375 L 19.15625 -41.609375 Z M 19.15625 -42.625 "/></g></g><g style="fill:#ffffff;fill-opacity:1;"><g transform="translate(127.561153, 206.489518)"><path style="stroke:none" d=""/></g></g><g style="fill:#ffffff;fill-opacity:1;"><g transform="translate(151.476465, 206.489518)"><path style="stroke:none" d=""/></g></g><g style="fill:#ffffff;fill-opacity:1;"><g transform="translate(175.397087, 206.489518)"><path style="stroke:none" d="M 22.203125 1.203125 C 24.910156 1.203125 27.457031 0.582031 29.84375 -0.65625 C 32.238281 -1.90625 34.320312 -3.566406 36.09375 -5.640625 C 37.875 -7.710938 39.28125 -10.09375 40.3125 -12.78125 C 41.351562 -15.46875 41.875 -18.25 41.875 -21.125 C 41.875 -24 41.351562 -26.78125 40.3125 -29.46875 C 39.28125 -32.15625 37.875 -34.519531 36.09375 -36.5625 C 34.320312 -38.613281 32.238281 -40.253906 29.84375 -41.484375 C 27.457031 -42.710938 24.910156 -43.328125 22.203125 -43.328125 C 19.492188 -43.328125 16.941406 -42.710938 14.546875 -41.484375 C 12.160156 -40.253906 10.078125 -38.613281 8.296875 -36.5625 C 6.523438 -34.519531 5.117188 -32.15625 4.078125 -29.46875 C 3.046875 -26.78125 2.53125 -24 2.53125 -21.125 C 2.53125 -18.25 3.046875 -15.46875 4.078125 -12.78125 C 5.117188 -10.09375 6.523438 -7.710938 8.296875 -5.640625 C 10.078125 -3.566406 12.160156 -1.90625 14.546875 -0.65625 C 16.941406 0.582031 19.492188 1.203125 22.203125 1.203125 Z M 22.203125 -42.1875 C 24.109375 -42.1875 25.800781 -41.890625 27.28125 -41.296875 C 28.757812 -40.703125 29.992188 -39.707031 30.984375 -38.3125 C 31.984375 -36.914062 32.742188 -35.078125 33.265625 -32.796875 C 33.796875 -30.515625 34.0625 -27.679688 34.0625 -24.296875 L 34.0625 -17.953125 C 34.0625 -11.816406 33.046875 -7.28125 31.015625 -4.34375 C 28.984375 -1.40625 26.046875 0.0625 22.203125 0.0625 C 18.359375 0.0625 15.421875 -1.40625 13.390625 -4.34375 C 11.359375 -7.28125 10.34375 -11.816406 10.34375 -17.953125 L 10.34375 -24.296875 C 10.34375 -27.597656 10.601562 -30.378906 11.125 -32.640625 C 11.65625 -34.898438 12.414062 -36.738281 13.40625 -38.15625 C 14.40625 -39.570312 15.644531 -40.597656 17.125 -41.234375 C 18.601562 -41.867188 20.296875 -42.1875 22.203125 -42.1875 Z M 22.203125 -42.1875 "/></g></g><g style="fill:#ffffff;fill-opacity:1;"><g transform="translate(226.081342, 206.489518)"><path style="stroke:none" d="M 19.40625 -42.625 L 1.84375 -42.625 L 1.84375 -41.609375 L 7.296875 -41.609375 L 7.296875 -1.015625 L 1.84375 -1.015625 L 1.84375 0 L 18.90625 0 L 18.90625 -1.015625 L 13.453125 -1.015625 L 13.453125 -19.609375 L 20.046875 -19.609375 C 21.910156 -19.609375 23.613281 -19.878906 25.15625 -20.421875 C 26.695312 -20.972656 28.015625 -21.753906 29.109375 -22.765625 C 30.210938 -23.785156 31.070312 -25.003906 31.6875 -26.421875 C 32.300781 -27.835938 32.609375 -29.410156 32.609375 -31.140625 C 32.609375 -32.835938 32.300781 -34.394531 31.6875 -35.8125 C 31.070312 -37.226562 30.191406 -38.441406 29.046875 -39.453125 C 27.910156 -40.472656 26.523438 -41.253906 24.890625 -41.796875 C 23.265625 -42.347656 21.4375 -42.625 19.40625 -42.625 Z M 13.453125 -20.609375 L 13.453125 -41.609375 L 19.40625 -41.609375 C 21.78125 -41.609375 23.628906 -40.898438 24.953125 -39.484375 C 26.285156 -38.066406 26.953125 -35.671875 26.953125 -32.296875 L 26.953125 -30 C 26.953125 -26.75 26.296875 -24.367188 24.984375 -22.859375 C 23.679688 -21.359375 22.035156 -20.609375 20.046875 -20.609375 Z M 13.453125 -20.609375 "/></g></g><g style="fill:#ffffff;fill-opacity:1;"><g transform="translate(267.314001, 206.489518)"><path style="stroke:none" d="M 28.609375 -43.078125 L 26.765625 -40.734375 C 26.003906 -41.148438 25.285156 -41.523438 24.609375 -41.859375 C 23.929688 -42.203125 23.242188 -42.476562 22.546875 -42.6875 C 21.847656 -42.90625 21.109375 -43.066406 20.328125 -43.171875 C 19.546875 -43.273438 18.648438 -43.328125 17.640625 -43.328125 C 15.566406 -43.328125 13.710938 -42.988281 12.078125 -42.3125 C 10.453125 -41.632812 9.066406 -40.722656 7.921875 -39.578125 C 6.785156 -38.441406 5.921875 -37.132812 5.328125 -35.65625 C 4.734375 -34.175781 4.4375 -32.609375 4.4375 -30.953125 C 4.4375 -28.710938 5.125 -26.660156 6.5 -24.796875 C 7.875 -22.941406 10.019531 -21.523438 12.9375 -20.546875 C 14.332031 -20.085938 15.515625 -19.707031 16.484375 -19.40625 C 17.460938 -19.113281 18.375 -18.828125 19.21875 -18.546875 C 20.0625 -18.273438 20.914062 -17.976562 21.78125 -17.65625 C 22.65625 -17.34375 23.660156 -16.910156 24.796875 -16.359375 C 26.234375 -15.691406 27.207031 -14.753906 27.71875 -13.546875 C 28.226562 -12.335938 28.484375 -11.117188 28.484375 -9.890625 C 28.484375 -8.367188 28.1875 -6.984375 27.59375 -5.734375 C 27 -4.492188 26.210938 -3.445312 25.234375 -2.59375 C 24.265625 -1.75 23.144531 -1.09375 21.875 -0.625 C 20.613281 -0.164062 19.328125 0.0625 18.015625 0.0625 C 16.492188 0.0625 15.035156 -0.195312 13.640625 -0.71875 C 12.242188 -1.25 10.953125 -2 9.765625 -2.96875 C 8.585938 -3.945312 7.5625 -5.15625 6.6875 -6.59375 C 5.820312 -8.03125 5.15625 -9.640625 4.6875 -11.421875 C 4.5625 -11.972656 4.332031 -12.25 4 -12.25 C 3.695312 -12.25 3.546875 -11.953125 3.546875 -11.359375 L 3.546875 0 C 3.546875 0.550781 3.738281 0.828125 4.125 0.828125 C 4.375 0.828125 4.648438 0.613281 4.953125 0.1875 L 7.234375 -3.109375 C 7.742188 -2.640625 8.367188 -2.148438 9.109375 -1.640625 C 9.847656 -1.140625 10.671875 -0.675781 11.578125 -0.25 C 12.484375 0.164062 13.453125 0.507812 14.484375 0.78125 C 15.523438 1.0625 16.597656 1.203125 17.703125 1.203125 C 19.734375 1.203125 21.613281 0.832031 23.34375 0.09375 C 25.082031 -0.644531 26.582031 -1.671875 27.84375 -2.984375 C 29.113281 -4.296875 30.117188 -5.847656 30.859375 -7.640625 C 31.597656 -9.441406 31.96875 -11.378906 31.96875 -13.453125 C 31.96875 -16.285156 31.300781 -18.679688 29.96875 -20.640625 C 28.632812 -22.609375 26.53125 -24.019531 23.65625 -24.875 C 22.6875 -25.164062 21.78125 -25.414062 20.9375 -25.625 C 20.09375 -25.84375 19.222656 -26.078125 18.328125 -26.328125 C 17.441406 -26.578125 16.507812 -26.859375 15.53125 -27.171875 C 14.5625 -27.492188 13.488281 -27.890625 12.3125 -28.359375 C 11 -28.867188 10.003906 -29.648438 9.328125 -30.703125 C 8.648438 -31.765625 8.3125 -32.992188 8.3125 -34.390625 C 8.3125 -35.691406 8.582031 -36.835938 9.125 -37.828125 C 9.675781 -38.828125 10.382812 -39.644531 11.25 -40.28125 C 12.125 -40.914062 13.117188 -41.390625 14.234375 -41.703125 C 15.359375 -42.023438 16.492188 -42.1875 17.640625 -42.1875 C 19.367188 -42.1875 20.890625 -41.890625 22.203125 -41.296875 C 23.515625 -40.703125 24.613281 -39.914062 25.5 -38.9375 C 26.382812 -37.96875 27.09375 -36.847656 27.625 -35.578125 C 28.15625 -34.316406 28.503906 -33.007812 28.671875 -31.65625 C 28.710938 -31.226562 28.90625 -31.015625 29.25 -31.015625 C 29.539062 -31.015625 29.6875 -31.226562 29.6875 -31.65625 L 29.6875 -42.953125 C 29.6875 -43.367188 29.5625 -43.578125 29.3125 -43.578125 C 29.09375 -43.578125 28.859375 -43.410156 28.609375 -43.078125 Z M 28.609375 -43.078125 "/></g></g><g clip-rule="nonzero" clip-path="url(#e81714c1fb)"><g transform="matrix(1,0,0,1,82,177)"><g clip-path="url(#cc9eb41ffe)"><g clip-rule="nonzero" clip-path="url(#ac06a2d674)"><path style=" stroke:none;fill-rule:nonzero;fill:#000000;fill-opacity:1;" d="M 0.914062 0.800781 L 227.027344 0.800781 L 227.027344 15.792969 L 0.914062 15.792969 Z M 0.914062 0.800781 "/></g></g></g></g><g style="fill:#ffffff;fill-opacity:1;"><g transform="translate(83.570609, 188.682453)"><path style="stroke:none" d="M 1.34375 -3.578125 L 1.34375 0 L 0.453125 0 L 0.453125 -7.96875 L 1.34375 -7.96875 L 1.34375 -4.375 L 3.296875 -4.375 L 3.296875 -7.96875 L 4.1875 -7.96875 L 4.1875 0 L 3.296875 0 L 3.296875 -3.578125 Z M 1.34375 -3.578125 "/></g></g><g style="fill:#ffffff;fill-opacity:1;"><g transform="translate(95.379744, 188.682453)"><path style="stroke:none" d="M 0.390625 -6.046875 C 0.390625 -6.660156 0.535156 -7.144531 0.828125 -7.5 C 1.128906 -7.863281 1.585938 -8.046875 2.203125 -8.046875 C 2.816406 -8.046875 3.273438 -7.863281 3.578125 -7.5 C 3.878906 -7.144531 4.03125 -6.660156 4.03125 -6.046875 L 4.03125 -1.921875 C 4.03125 -1.316406 3.878906 -0.832031 3.578125 -0.46875 C 3.273438 -0.101562 2.816406 0.078125 2.203125 0.078125 C 1.585938 0.078125 1.128906 -0.101562 0.828125 -0.46875 C 0.535156 -0.832031 0.390625 -1.316406 0.390625 -1.921875 Z M 1.265625 -1.875 C 1.265625 -1.507812 1.34375 -1.226562 1.5 -1.03125 C 1.65625 -0.832031 1.890625 -0.734375 2.203125 -0.734375 C 2.535156 -0.734375 2.773438 -0.832031 2.921875 -1.03125 C 3.078125 -1.226562 3.15625 -1.507812 3.15625 -1.875 L 3.15625 -6.078125 C 3.15625 -6.441406 3.078125 -6.722656 2.921875 -6.921875 C 2.773438 -7.128906 2.535156 -7.234375 2.203125 -7.234375 C 1.890625 -7.234375 1.65625 -7.128906 1.5 -6.921875 C 1.34375 -6.722656 1.265625 -6.441406 1.265625 -6.078125 Z M 1.265625 -1.875 "/></g></g><g style="fill:#ffffff;fill-opacity:1;"><g transform="translate(106.972894, 188.682453)"><path style="stroke:none" d="M 2.234375 -7.96875 C 2.859375 -7.96875 3.304688 -7.8125 3.578125 -7.5 C 3.859375 -7.1875 4 -6.734375 4 -6.140625 L 4 -5.5 C 4 -5.050781 3.921875 -4.691406 3.765625 -4.421875 C 3.609375 -4.148438 3.359375 -3.960938 3.015625 -3.859375 C 3.378906 -3.753906 3.632812 -3.554688 3.78125 -3.265625 C 3.9375 -2.984375 4.015625 -2.628906 4.015625 -2.203125 L 4.015625 -0.953125 C 4.015625 -0.773438 4.019531 -0.601562 4.03125 -0.4375 C 4.050781 -0.28125 4.097656 -0.132812 4.171875 0 L 3.28125 0 C 3.226562 -0.113281 3.1875 -0.234375 3.15625 -0.359375 C 3.132812 -0.492188 3.125 -0.695312 3.125 -0.96875 L 3.125 -2.21875 C 3.125 -2.664062 3.023438 -2.972656 2.828125 -3.140625 C 2.628906 -3.316406 2.34375 -3.40625 1.96875 -3.40625 L 1.34375 -3.40625 L 1.34375 0 L 0.453125 0 L 0.453125 -7.96875 Z M 2 -4.203125 C 2.351562 -4.203125 2.628906 -4.273438 2.828125 -4.421875 C 3.023438 -4.578125 3.125 -4.867188 3.125 -5.296875 L 3.125 -6.0625 C 3.125 -6.425781 3.050781 -6.695312 2.90625 -6.875 C 2.769531 -7.0625 2.535156 -7.15625 2.203125 -7.15625 L 1.34375 -7.15625 L 1.34375 -4.203125 Z M 2 -4.203125 "/></g></g><g style="fill:#ffffff;fill-opacity:1;"><g transform="translate(118.622888, 188.682453)"><path style="stroke:none" d="M 1.34375 -7.96875 L 1.34375 0 L 0.453125 0 L 0.453125 -7.96875 Z M 1.34375 -7.96875 "/></g></g><g style="fill:#ffffff;fill-opacity:1;"><g transform="translate(127.590214, 188.682453)"><path style="stroke:none" d="M 3.953125 0 L 0.328125 0 L 0.328125 -0.796875 L 3.0625 -7.15625 L 0.453125 -7.15625 L 0.453125 -7.96875 L 3.96875 -7.96875 L 3.96875 -7.171875 L 1.234375 -0.8125 L 3.953125 -0.8125 Z M 3.953125 0 "/></g></g><g style="fill:#ffffff;fill-opacity:1;"><g transform="translate(139.069702, 188.682453)"><path style="stroke:none" d="M 0.390625 -6.046875 C 0.390625 -6.660156 0.535156 -7.144531 0.828125 -7.5 C 1.128906 -7.863281 1.585938 -8.046875 2.203125 -8.046875 C 2.816406 -8.046875 3.273438 -7.863281 3.578125 -7.5 C 3.878906 -7.144531 4.03125 -6.660156 4.03125 -6.046875 L 4.03125 -1.921875 C 4.03125 -1.316406 3.878906 -0.832031 3.578125 -0.46875 C 3.273438 -0.101562 2.816406 0.078125 2.203125 0.078125 C 1.585938 0.078125 1.128906 -0.101562 0.828125 -0.46875 C 0.535156 -0.832031 0.390625 -1.316406 0.390625 -1.921875 Z M 1.265625 -1.875 C 1.265625 -1.507812 1.34375 -1.226562 1.5 -1.03125 C 1.65625 -0.832031 1.890625 -0.734375 2.203125 -0.734375 C 2.535156 -0.734375 2.773438 -0.832031 2.921875 -1.03125 C 3.078125 -1.226562 3.15625 -1.507812 3.15625 -1.875 L 3.15625 -6.078125 C 3.15625 -6.441406 3.078125 -6.722656 2.921875 -6.921875 C 2.773438 -7.128906 2.535156 -7.234375 2.203125 -7.234375 C 1.890625 -7.234375 1.65625 -7.128906 1.5 -6.921875 C 1.34375 -6.722656 1.265625 -6.441406 1.265625 -6.078125 Z M 1.265625 -1.875 "/></g></g><g style="fill:#ffffff;fill-opacity:1;"><g transform="translate(150.662852, 188.682453)"><path style="stroke:none" d="M 1.234375 0 L 0.4375 0 L 0.4375 -7.96875 L 1.5625 -7.96875 L 3.40625 -2.203125 L 3.40625 -7.96875 L 4.203125 -7.96875 L 4.203125 0 L 3.28125 0 L 1.234375 -6.4375 Z M 1.234375 0 "/></g></g><g style="fill:#ffffff;fill-opacity:1;"><g transform="translate(162.483351, 188.682453)"><path style="stroke:none" d=""/></g></g><g style="fill:#ffffff;fill-opacity:1;"><g transform="translate(171.416585, 188.682453)"><path style="stroke:none" d="M 2.234375 -8.046875 C 2.859375 -8.046875 3.3125 -7.863281 3.59375 -7.5 C 3.882812 -7.132812 4.03125 -6.644531 4.03125 -6.03125 C 4.03125 -5.625 3.960938 -5.257812 3.828125 -4.9375 C 3.703125 -4.613281 3.535156 -4.3125 3.328125 -4.03125 C 3.128906 -3.757812 2.914062 -3.503906 2.6875 -3.265625 C 2.457031 -3.023438 2.238281 -2.78125 2.03125 -2.53125 C 1.832031 -2.289062 1.664062 -2.039062 1.53125 -1.78125 C 1.394531 -1.519531 1.328125 -1.238281 1.328125 -0.9375 L 1.328125 -0.8125 L 3.953125 -0.8125 L 3.953125 0 L 0.453125 0 L 0.453125 -0.6875 C 0.453125 -1.101562 0.519531 -1.472656 0.65625 -1.796875 C 0.789062 -2.128906 0.957031 -2.429688 1.15625 -2.703125 C 1.351562 -2.972656 1.566406 -3.226562 1.796875 -3.46875 C 2.035156 -3.707031 2.253906 -3.953125 2.453125 -4.203125 C 2.648438 -4.453125 2.816406 -4.71875 2.953125 -5 C 3.085938 -5.289062 3.15625 -5.625 3.15625 -6 C 3.15625 -6.40625 3.082031 -6.710938 2.9375 -6.921875 C 2.789062 -7.140625 2.550781 -7.25 2.21875 -7.25 C 1.894531 -7.25 1.65625 -7.140625 1.5 -6.921875 C 1.351562 -6.710938 1.28125 -6.429688 1.28125 -6.078125 L 1.28125 -5.375 L 0.453125 -5.375 L 0.453125 -6.015625 C 0.453125 -6.628906 0.59375 -7.117188 0.875 -7.484375 C 1.164062 -7.859375 1.617188 -8.046875 2.234375 -8.046875 Z M 2.234375 -8.046875 "/></g></g><g style="fill:#ffffff;fill-opacity:1;"><g transform="translate(182.987008, 188.682453)"><path style="stroke:none" d=""/></g></g><g style="fill:#ffffff;fill-opacity:1;"><g transform="translate(191.920242, 188.682453)"><path style="stroke:none" d="M 0.390625 -6.046875 C 0.390625 -6.660156 0.535156 -7.144531 0.828125 -7.5 C 1.128906 -7.863281 1.585938 -8.046875 2.203125 -8.046875 C 2.816406 -8.046875 3.273438 -7.863281 3.578125 -7.5 C 3.878906 -7.144531 4.03125 -6.660156 4.03125 -6.046875 L 4.03125 -1.921875 C 4.03125 -1.316406 3.878906 -0.832031 3.578125 -0.46875 C 3.273438 -0.101562 2.816406 0.078125 2.203125 0.078125 C 1.585938 0.078125 1.128906 -0.101562 0.828125 -0.46875 C 0.535156 -0.832031 0.390625 -1.316406 0.390625 -1.921875 Z M 1.265625 -1.875 C 1.265625 -1.507812 1.34375 -1.226562 1.5 -1.03125 C 1.65625 -0.832031 1.890625 -0.734375 2.203125 -0.734375 C 2.535156 -0.734375 2.773438 -0.832031 2.921875 -1.03125 C 3.078125 -1.226562 3.15625 -1.507812 3.15625 -1.875 L 3.15625 -6.078125 C 3.15625 -6.441406 3.078125 -6.722656 2.921875 -6.921875 C 2.773438 -7.128906 2.535156 -7.234375 2.203125 -7.234375 C 1.890625 -7.234375 1.65625 -7.128906 1.5 -6.921875 C 1.34375 -6.722656 1.265625 -6.441406 1.265625 -6.078125 Z M 1.265625 -1.875 "/></g></g><g style="fill:#ffffff;fill-opacity:1;"><g transform="translate(203.513393, 188.682453)"><path style="stroke:none" d="M 2.203125 -7.96875 C 2.828125 -7.96875 3.28125 -7.789062 3.5625 -7.4375 C 3.84375 -7.09375 3.984375 -6.617188 3.984375 -6.015625 L 3.984375 -5.0625 C 3.984375 -4.425781 3.832031 -3.945312 3.53125 -3.625 C 3.226562 -3.300781 2.757812 -3.140625 2.125 -3.140625 L 1.34375 -3.140625 L 1.34375 0 L 0.453125 0 L 0.453125 -7.96875 Z M 2.125 -3.9375 C 2.457031 -3.9375 2.703125 -4.015625 2.859375 -4.171875 C 3.023438 -4.335938 3.109375 -4.613281 3.109375 -5 L 3.109375 -6.0625 C 3.109375 -6.425781 3.035156 -6.695312 2.890625 -6.875 C 2.753906 -7.0625 2.523438 -7.15625 2.203125 -7.15625 L 1.34375 -7.15625 L 1.34375 -3.9375 Z M 2.125 -3.9375 "/></g></g><g style="fill:#ffffff;fill-opacity:1;"><g transform="translate(214.901934, 188.682453)"><path style="stroke:none" d="M 3.28125 -4.4375 L 3.28125 -3.640625 L 1.34375 -3.640625 L 1.34375 -0.8125 L 3.734375 -0.8125 L 3.734375 0 L 0.453125 0 L 0.453125 -7.96875 L 3.734375 -7.96875 L 3.734375 -7.15625 L 1.34375 -7.15625 L 1.34375 -4.4375 Z M 3.28125 -4.4375 "/></g></g><g style="fill:#ffffff;fill-opacity:1;"><g transform="translate(226.165437, 188.682453)"><path style="stroke:none" d="M 2.234375 -7.96875 C 2.859375 -7.96875 3.304688 -7.8125 3.578125 -7.5 C 3.859375 -7.1875 4 -6.734375 4 -6.140625 L 4 -5.5 C 4 -5.050781 3.921875 -4.691406 3.765625 -4.421875 C 3.609375 -4.148438 3.359375 -3.960938 3.015625 -3.859375 C 3.378906 -3.753906 3.632812 -3.554688 3.78125 -3.265625 C 3.9375 -2.984375 4.015625 -2.628906 4.015625 -2.203125 L 4.015625 -0.953125 C 4.015625 -0.773438 4.019531 -0.601562 4.03125 -0.4375 C 4.050781 -0.28125 4.097656 -0.132812 4.171875 0 L 3.28125 0 C 3.226562 -0.113281 3.1875 -0.234375 3.15625 -0.359375 C 3.132812 -0.492188 3.125 -0.695312 3.125 -0.96875 L 3.125 -2.21875 C 3.125 -2.664062 3.023438 -2.972656 2.828125 -3.140625 C 2.628906 -3.316406 2.34375 -3.40625 1.96875 -3.40625 L 1.34375 -3.40625 L 1.34375 0 L 0.453125 0 L 0.453125 -7.96875 Z M 2 -4.203125 C 2.351562 -4.203125 2.628906 -4.273438 2.828125 -4.421875 C 3.023438 -4.578125 3.125 -4.867188 3.125 -5.296875 L 3.125 -6.0625 C 3.125 -6.425781 3.050781 -6.695312 2.90625 -6.875 C 2.769531 -7.0625 2.535156 -7.15625 2.203125 -7.15625 L 1.34375 -7.15625 L 1.34375 -4.203125 Z M 2 -4.203125 "/></g></g><g style="fill:#ffffff;fill-opacity:1;"><g transform="translate(237.81543, 188.682453)"><path style="stroke:none" d="M 1.359375 -1.609375 L 1.046875 0 L 0.234375 0 L 1.75 -7.96875 L 3.03125 -7.96875 L 4.5625 0 L 3.671875 0 L 3.359375 -1.609375 Z M 1.46875 -2.359375 L 3.234375 -2.359375 L 2.34375 -6.96875 Z M 1.46875 -2.359375 "/></g></g><g style="fill:#ffffff;fill-opacity:1;"><g transform="translate(249.35136, 188.682453)"><path style="stroke:none" d="M 1.609375 0 L 1.609375 -7.15625 L 0.140625 -7.15625 L 0.140625 -7.96875 L 3.953125 -7.96875 L 3.953125 -7.15625 L 2.484375 -7.15625 L 2.484375 0 Z M 1.609375 0 "/></g></g><g style="fill:#ffffff;fill-opacity:1;"><g transform="translate(260.614864, 188.682453)"><path style="stroke:none" d="M 1.34375 -7.96875 L 1.34375 0 L 0.453125 0 L 0.453125 -7.96875 Z M 1.34375 -7.96875 "/></g></g><g style="fill:#ffffff;fill-opacity:1;"><g transform="translate(269.58219, 188.682453)"><path style="stroke:none" d="M 0.390625 -6.046875 C 0.390625 -6.660156 0.535156 -7.144531 0.828125 -7.5 C 1.128906 -7.863281 1.585938 -8.046875 2.203125 -8.046875 C 2.816406 -8.046875 3.273438 -7.863281 3.578125 -7.5 C 3.878906 -7.144531 4.03125 -6.660156 4.03125 -6.046875 L 4.03125 -1.921875 C 4.03125 -1.316406 3.878906 -0.832031 3.578125 -0.46875 C 3.273438 -0.101562 2.816406 0.078125 2.203125 0.078125 C 1.585938 0.078125 1.128906 -0.101562 0.828125 -0.46875 C 0.535156 -0.832031 0.390625 -1.316406 0.390625 -1.921875 Z M 1.265625 -1.875 C 1.265625 -1.507812 1.34375 -1.226562 1.5 -1.03125 C 1.65625 -0.832031 1.890625 -0.734375 2.203125 -0.734375 C 2.535156 -0.734375 2.773438 -0.832031 2.921875 -1.03125 C 3.078125 -1.226562 3.15625 -1.507812 3.15625 -1.875 L 3.15625 -6.078125 C 3.15625 -6.441406 3.078125 -6.722656 2.921875 -6.921875 C 2.773438 -7.128906 2.535156 -7.234375 2.203125 -7.234375 C 1.890625 -7.234375 1.65625 -7.128906 1.5 -6.921875 C 1.34375 -6.722656 1.265625 -6.441406 1.265625 -6.078125 Z M 1.265625 -1.875 "/></g></g><g style="fill:#ffffff;fill-opacity:1;"><g transform="translate(281.17534, 188.682453)"><path style="stroke:none" d="M 1.234375 0 L 0.4375 0 L 0.4375 -7.96875 L 1.5625 -7.96875 L 3.40625 -2.203125 L 3.40625 -7.96875 L 4.203125 -7.96875 L 4.203125 0 L 3.28125 0 L 1.234375 -6.4375 Z M 1.234375 0 "/></g></g><g style="fill:#ffffff;fill-opacity:1;"><g transform="translate(292.995828, 188.682453)"><path style="stroke:none" d="M 2.125 -8.046875 C 2.726562 -8.046875 3.175781 -7.863281 3.46875 -7.5 C 3.757812 -7.144531 3.90625 -6.660156 3.90625 -6.046875 L 3.90625 -5.828125 L 3.0625 -5.828125 L 3.0625 -6.09375 C 3.0625 -6.457031 2.988281 -6.738281 2.84375 -6.9375 C 2.695312 -7.132812 2.46875 -7.234375 2.15625 -7.234375 C 1.832031 -7.234375 1.597656 -7.132812 1.453125 -6.9375 C 1.304688 -6.738281 1.234375 -6.460938 1.234375 -6.109375 C 1.234375 -5.816406 1.300781 -5.554688 1.4375 -5.328125 C 1.570312 -5.109375 1.738281 -4.90625 1.9375 -4.71875 C 2.132812 -4.539062 2.347656 -4.359375 2.578125 -4.171875 C 2.804688 -3.992188 3.019531 -3.800781 3.21875 -3.59375 C 3.414062 -3.382812 3.578125 -3.144531 3.703125 -2.875 C 3.835938 -2.601562 3.90625 -2.28125 3.90625 -1.90625 C 3.90625 -1.300781 3.757812 -0.816406 3.46875 -0.453125 C 3.175781 -0.0976562 2.722656 0.078125 2.109375 0.078125 C 1.492188 0.078125 1.039062 -0.0976562 0.75 -0.453125 C 0.46875 -0.816406 0.328125 -1.300781 0.328125 -1.90625 L 0.328125 -2.359375 L 1.15625 -2.359375 L 1.15625 -1.859375 C 1.15625 -1.492188 1.226562 -1.210938 1.375 -1.015625 C 1.53125 -0.828125 1.769531 -0.734375 2.09375 -0.734375 C 2.414062 -0.734375 2.648438 -0.828125 2.796875 -1.015625 C 2.953125 -1.210938 3.03125 -1.492188 3.03125 -1.859375 C 3.03125 -2.160156 2.960938 -2.414062 2.828125 -2.625 C 2.691406 -2.84375 2.523438 -3.046875 2.328125 -3.234375 C 2.128906 -3.421875 1.914062 -3.601562 1.6875 -3.78125 C 1.46875 -3.957031 1.257812 -4.148438 1.0625 -4.359375 C 0.863281 -4.578125 0.695312 -4.820312 0.5625 -5.09375 C 0.425781 -5.363281 0.359375 -5.679688 0.359375 -6.046875 C 0.359375 -6.660156 0.503906 -7.144531 0.796875 -7.5 C 1.085938 -7.863281 1.53125 -8.046875 2.125 -8.046875 Z M 2.125 -8.046875 "/></g></g></g></svg>